PathFileType	4	(X/Y/Z)	D:\TRACE\spotREDO_2-26-24\spot_Both_Motion_1_1-v60.trc
DataRate	CameraRate	NumFrames	NumMarkers	Units	OrigDataRate	OrigDataStartFrame	OrigNumFrames
100.00	100.00	      21	9	mm	100.00	2626	      7000
Frame#	Time	front left toe			Front right toe			aft left toe			aft right toe			Arm			FL body			FR body			AL Body			AR Body			
		X1	Y1	Z1	X2	Y2	Z2	X3	Y3	Z3	X4	Y4	Z4	X5	Y5	Z5	X6	Y6	Z6	X7	Y7	Z7	X8	Y8	Z8	X9	Y9	Z9	

2626	26.250	-235.76508	123.23063	-461.78021	242.19144	-2.46552	-500.40012	-282.74356	26.06554	105.51190	52.04441	19.88300	175.83182	-13.53749	665.03943	-793.68964	-47.11891	543.82886	-481.45895	107.44903	549.67633	-469.62357	-122.23862	570.13922	398.97534	18.12197	576.43182	411.81125	
2627	26.260	-234.76733	125.98374	-465.01233	241.35791	-2.48637	-500.42731	-283.89734	25.85107	105.42263	51.22720	20.03127	175.64853	-16.62583	664.95667	-793.43451	-47.26917	543.76074	-482.65292	107.20133	549.45575	-470.21887	-124.67208	570.14526	397.86609	15.51219	576.51123	410.99088	
2628	26.270	-233.32845	125.88755	-466.86932	240.51639	-2.41139	-500.23010	-284.95450	25.43666	105.48314	50.28469	20.02273	175.82881	-20.11881	665.59204	-793.62872	-48.13102	543.83698	-483.50330	106.22312	549.56586	-471.00879	-127.06825	570.21094	396.69662	13.14364	576.34821	410.08646	
2629	26.280	-231.68434	124.51736	-467.76401	239.69368	-1.84750	-500.07751	-285.87042	25.32128	105.41093	49.48389	19.71091	175.79204	-23.08207	665.98779	-793.38104	-49.46973	544.15350	-484.44888	105.09612	549.83295	-471.32712	-128.81802	569.96320	395.73105	11.24360	576.47131	409.21631	
2630	26.290	-230.23668	122.37305	-467.67905	238.24142	-1.58354	-500.30508	-286.99771	25.65289	105.60148	48.50316	19.69275	176.00114	-25.16739	666.73743	-792.99713	-51.29899	544.55865	-485.41156	103.23862	550.64618	-472.83914	-130.21040	569.62714	394.89145	10.07419	576.19250	408.37292	
2631	26.300	-228.91595	120.88883	-468.12769	237.26009	-1.02218	-500.43054	-287.52817	25.44317	105.68159	47.66983	19.55347	176.10539	-27.07074	667.66498	-793.14526	-53.82028	544.78833	-486.05707	100.77317	551.24957	-473.82571	-131.12296	569.48810	394.23438	9.28636	576.17413	407.47137	
2632	26.310	-228.02409	120.00488	-468.82477	235.30060	-0.39184	-500.77325	-288.37695	25.03945	105.91868	46.88831	19.37532	176.04747	-28.39252	668.37128	-793.06738	-56.45874	545.21503	-487.14328	98.06318	551.65149	-474.46362	-131.72527	569.18011	393.61682	8.96570	576.04187	406.62552	
2633	26.320	-227.52858	119.80972	-470.09338	234.05591	0.44638	-501.02365	-289.73712	25.21780	105.98826	46.03118	19.24537	175.80411	-29.47445	668.96680	-793.04620	-60.03291	545.56104	-487.67679	94.79189	552.22131	-476.29089	-132.22798	569.02948	393.01160	8.65844	575.75116	405.53156	
2634	26.330	-227.18085	119.37182	-471.47067	232.33495	0.91957	-501.41089	-290.23276	25.18987	106.20290	44.83879	19.17467	175.87199	-29.34571	669.16364	-792.89038	-63.70488	545.92633	-488.44858	91.10479	552.98889	-477.67010	-132.53517	568.92352	392.52774	6.94903	576.12878	404.43045	
2635	26.340	-226.47038	118.91616	-472.48804	231.30118	1.71893	-501.76410	-290.82715	25.19951	106.39780	43.83229	19.03537	175.72354	-29.50685	669.60394	-793.67480	-67.06301	546.54547	-489.30405	87.73886	553.46246	-478.96454	-133.31146	569.01489	391.99475	6.24237	576.29547	403.25488	
2636	26.350	-225.46352	117.44022	-474.05637	229.32140	2.14786	-502.02319	-291.92249	25.23203	106.47539	42.97427	19.03871	175.50992	-29.01402	669.58020	-794.04449	-70.46023	547.14996	-490.24661	84.22242	554.15710	-480.30969	-134.21404	569.09772	391.36942	5.56599	576.54333	402.32236	
2637	26.360	-224.87704	114.55621	-475.97800	228.64452	2.87141	-501.65918	-292.86835	25.18525	106.82133	42.32346	18.88578	175.50606	-28.55633	669.58374	-794.22552	-74.12649	547.43781	-490.98788	81.54829	554.59100	-481.28983	-135.71246	569.16577	390.50195	4.30783	576.36731	401.24554	
2638	26.370	-224.61588	108.44298	-477.75473	227.65900	2.94008	-501.91293	-293.61722	25.24444	107.04008	41.29861	18.97556	175.46217	-27.82642	669.35883	-794.63000	-76.90381	547.69836	-492.06073	78.69891	554.98120	-482.65515	-137.67702	569.13654	389.63159	2.67688	576.28040	400.24243	
2639	26.380	-224.45251	100.66470	-479.51642	226.47379	3.01238	-501.99463	-294.78299	24.78209	106.93577	40.38979	18.94206	175.20461	-27.31359	669.01782	-794.91901	-79.21379	547.65210	-493.34521	76.24388	554.99097	-483.81772	-140.00838	569.21863	388.27316	0.47795	576.48212	398.95114	
2640	26.390	-224.33078	90.69058	-480.93845	225.73848	3.19413	-501.69235	-296.07825	24.79144	106.90624	39.11082	19.02797	175.33492	-27.22080	668.64539	-795.22119	-81.11161	547.73932	-494.67841	74.26563	554.86108	-484.92764	-142.92084	569.41498	387.05472	-2.37550	576.96478	397.81436	
2641	26.400	-224.84750	79.89741	-481.94241	225.27356	3.03546	-501.73572	-296.78152	24.24092	107.06116	38.11675	19.02184	175.31131	-27.59052	668.38861	-795.33173	-82.86624	547.45111	-495.90076	72.49111	554.78448	-486.08392	-145.80594	569.58954	385.49402	-5.37618	576.94031	396.46249	
2642	26.410	-224.94572	68.61512	-482.28030	225.08890	3.76220	-500.72043	-298.54724	24.18749	106.82126	36.75352	19.50039	175.47523	-28.51097	667.99500	-795.33411	-84.48112	546.92480	-497.34595	70.79242	554.43231	-487.51526	-149.28494	569.97107	383.79025	-8.93479	577.49164	395.02902	
2643	26.420	-225.36478	58.39067	-482.66068	224.32664	3.75910	-500.65292	-299.31564	24.08958	106.77531	35.99277	19.39305	175.33850	-29.70147	667.68921	-795.37378	-86.20893	546.48517	-498.90121	69.17722	554.02368	-488.65344	-152.69641	570.23822	381.88611	-12.24302	577.67792	393.66776	
2644	26.430	-225.68579	47.94086	-482.96045	223.12128	3.33353	-501.23535	-300.66281	23.78324	106.55453	34.49889	19.64524	175.53339	-30.87445	667.55615	-795.51178	-87.81973	546.05225	-500.59512	67.38979	553.55353	-490.02603	-156.27487	570.55859	380.09592	-15.75577	578.03772	392.07541	
2645	26.440	-225.92114	37.61455	-483.19821	222.64282	3.69591	-500.82117	-301.41006	23.49178	106.66633	33.95195	19.64561	175.45079	-32.41847	667.37439	-795.41089	-90.06990	545.95319	-503.00684	65.42072	553.06720	-491.56213	-159.76425	570.78265	378.08395	-19.52511	578.12946	390.28903	
2646	26.450	-225.54901	27.00205	-483.58212	221.98654	3.93414	-500.49582	-302.41846	23.58156	106.70898	32.78643	19.60444	175.56084	-33.83557	667.49939	-795.31885	-91.99153	545.93768	-504.30069	63.11414	552.97662	-493.26764	-162.93799	570.68317	376.45874	-22.76496	578.07385	388.57022	
